<?xml version="1.0" encoding="utf-8"?><!-- Uploaded to: SVG Repo, www.svgrepo.com, Generator: SVG Repo Mixer Tools -->
<svg fill="#000000" width="800px" height="800px" viewBox="0 0 24 24" id="beta" data-name="Flat Line" xmlns="http://www.w3.org/2000/svg" class="icon flat-line"><path id="primary" d="M4,21H4a4,4,0,0,0,4-4V5a2,2,0,0,1,2-2h3a4,4,0,0,1,4,4h0a4,4,0,0,1-4,4H8" style="fill: none; stroke: rgb(0, 0, 0); stroke-linecap: round; stroke-linejoin: round; stroke-width: 2;"></path><path id="primary-2" data-name="primary" d="M12,11h4a2,2,0,0,1,2,2v6a0,0,0,0,1,0,0H12a4,4,0,0,1-4-4v0A4,4,0,0,1,12,11Z" transform="translate(26 30) rotate(180)" style="fill: none; stroke: rgb(0, 0, 0); stroke-linecap: round; stroke-linejoin: round; stroke-width: 2;"></path></svg>