<?xml version="1.0" encoding="iso-8859-1"?>
<!-- Uploaded to: SVG Repo, www.svgrepo.com, Generator: SVG Repo Mixer Tools -->
<svg fill="#000000" height="800px" width="800px" version="1.1" id="Layer_1" xmlns="http://www.w3.org/2000/svg" xmlns:xlink="http://www.w3.org/1999/xlink" 
	 viewBox="0 0 512 512" xml:space="preserve">
<g>
	<g>
		<path d="M477.178,174.39c8.812-13.708,13.948-29.993,13.948-47.466c0-48.55-39.499-88.048-88.05-88.048
			c-32.839,0-61.516,18.084-76.651,44.803c-22.773-5.031-46.356-7.586-70.424-7.586c-24.003,0-47.624,2.55-70.427,7.582
			c-15.135-26.717-43.813-44.799-76.65-44.799c-48.55,0-88.048,39.498-88.048,88.049c0,17.473,5.137,33.759,13.949,47.467
			C11.987,204.676,0,239.016,0,274.61c0,53.849,27.194,104.194,76.573,141.763c48.104,36.597,111.826,56.752,179.427,56.752
			c67.601,0,131.323-20.155,179.427-56.753C484.806,378.803,512,328.457,512,274.609C512,239.019,500.014,204.674,477.178,174.39z
			 M403.076,70.224c31.266,0,56.703,25.436,56.703,56.701s-25.437,56.702-56.703,56.702s-56.701-25.436-56.701-56.702
			S371.811,70.224,403.076,70.224z M108.924,70.224c31.266,0,56.703,25.436,56.703,56.701s-25.437,56.702-56.703,56.702
			s-56.701-25.436-56.701-56.702S77.658,70.224,108.924,70.224z M56.629,197.71c14.634,10.84,32.726,17.264,52.294,17.264
			c48.55,0,88.05-39.498,88.05-88.049c0-4.558-0.348-9.035-1.02-13.409c19.464-4.03,39.588-6.075,60.047-6.075
			c20.515,0,40.613,2.041,60.048,6.068c-0.672,4.376-1.021,8.857-1.021,13.417c0,48.55,39.498,88.049,88.049,88.049
			c19.568,0,37.66-6.424,52.294-17.263c15.157,21.633,23.712,45.416,25.08,69.911c-23.821,20.076-49.402,34.122-79.949,43.943
			c-38.207,12.281-85.474,18.252-144.5,18.252c-59.025,0-106.292-5.971-144.499-18.253c-30.549-9.821-56.132-23.869-79.952-43.945
			C32.919,243.124,41.471,219.342,56.629,197.71z M256.001,441.777c-107.337,0-197.317-56.31-219.433-131.312
			c19.882,13.102,41.246,23.196,65.34,30.94c41.355,13.295,91.76,19.758,154.094,19.758c62.333,0,112.738-6.463,154.095-19.758
			c24.092-7.745,45.456-17.839,65.338-30.939C453.315,385.468,363.336,441.777,256.001,441.777z"/>
	</g>
</g>
<g>
	<g>
		<path d="M108.931,105.926c-11.45,0-20.738,9.401-20.738,20.998s9.288,20.998,20.738,20.998c11.436,0,20.725-9.401,20.725-20.998
			S120.367,105.926,108.931,105.926z"/>
	</g>
</g>
<g>
	<g>
		<path d="M403.084,105.926c-11.45,0-20.738,9.401-20.738,20.998s9.288,20.998,20.738,20.998c11.436,0,20.725-9.401,20.725-20.998
			S414.52,105.926,403.084,105.926z"/>
	</g>
</g>
<g>
	<g>
		<path d="M219.852,256.624c-9.79,0-17.756,8.048-17.756,17.986c0,9.936,7.966,17.992,17.756,17.992
			c9.802,0,17.767-8.055,17.767-17.992C237.62,264.672,229.654,256.624,219.852,256.624z"/>
	</g>
</g>
<g>
	<g>
		<path d="M292.015,256.484c-9.885,0-17.902,8.115-17.902,18.126s8.017,18.126,17.902,18.126c9.872,0,17.89-8.115,17.89-18.126
			S301.887,256.484,292.015,256.484z"/>
	</g>
</g>
</svg>