<?xml version="1.0" encoding="iso-8859-1"?>
<!-- Uploaded to: SVG Repo, www.svgrepo.com, Generator: SVG Repo Mixer Tools -->
<svg fill="#000000" height="800px" width="800px" version="1.1" id="Layer_1" xmlns="http://www.w3.org/2000/svg" xmlns:xlink="http://www.w3.org/1999/xlink" 
	 viewBox="0 0 512 512" xml:space="preserve">
<g>
	<g>
		<g>
			<path d="M490.667,96H85.333V74.667c0-11.782-9.551-21.333-21.333-21.333H21.333C9.551,53.333,0,62.885,0,74.667
				C0,86.449,9.551,96,21.333,96h21.333v21.333v256V416c0,11.782,9.551,21.333,21.333,21.333c11.782,0,21.333-9.551,21.333-21.333
				v-21.333H128v42.667c0,11.782,9.551,21.333,21.333,21.333c11.782,0,21.333-9.551,21.333-21.333v-42.667h42.667v42.667
				c0,11.782,9.551,21.333,21.333,21.333c11.782,0,21.333-9.551,21.333-21.333v-42.667h42.667v42.667
				c0,11.782,9.551,21.333,21.333,21.333s21.333-9.551,21.333-21.333v-42.667h149.333c11.782,0,21.333-9.551,21.333-21.333v-256
				C512,105.551,502.449,96,490.667,96z M469.333,352h-384V138.667h384V352z"/>
			<path d="M362.667,330.667c47.131,0,85.333-38.202,85.333-85.333S409.798,160,362.667,160s-85.333,38.202-85.333,85.333
				S315.535,330.667,362.667,330.667z M362.667,202.667c23.567,0,42.667,19.099,42.667,42.667S386.234,288,362.667,288
				S320,268.901,320,245.333S339.099,202.667,362.667,202.667z"/>
			<path d="M192,330.667h42.667c11.782,0,21.333-9.551,21.333-21.333v-128c0-11.782-9.551-21.333-21.333-21.333H192
				c-47.131,0-85.333,38.202-85.333,85.333S144.869,330.667,192,330.667z M192,202.667h21.333V288H192
				c-23.567,0-42.667-19.099-42.667-42.667S168.433,202.667,192,202.667z"/>
		</g>
	</g>
</g>
</svg>