<?xml version="1.0" encoding="utf-8"?>
<svg width="800px" height="800px" viewBox="0 0 1024 1024" xmlns="http://www.w3.org/2000/svg">
  <defs/>
  <path d="M 1001.83 682.293 C 995.791 663.582 987.025 645.612 976.7 628.012 C 970.661 617.452 963.258 607.077 955.271 595.962 C 968.713 538.901 970.076 479.432 958.972 421.631 C 953.518 394.212 945.531 367.349 934.427 341.227 C 939.881 327.148 944.751 313.253 949.232 299.173 C 954.687 280.462 957.804 260.083 958.972 238.593 C 959.557 228.589 959.557 218.77 958.972 209.507 C 958.388 182.644 949.816 163.377 938.712 150.038 C 935.595 145.406 931.31 141.331 927.024 137.811 L 918.452 129.659 C 908.127 120.396 897.023 110.948 885.919 102.24 C 860.789 82.417 836.827 66.67 813.645 53.887 C 803.126 48.144 788.515 40.548 771.372 35.176 C 761.631 32.212 753.06 30.544 743.709 29.433 C 740.008 28.877 735.722 28.877 732.021 28.877 C 714.293 28.877 700.656 32.953 694.617 35.361 L 694.033 35.361 C 666.37 43.513 640.071 56.851 611.239 75.563 C 602.668 73.895 594.096 72.043 585.525 70.931 C 549.29 65.188 511.302 63.336 473.899 66.3 C 438.249 68.708 402.794 75.563 369.677 86.123 C 355.651 90.754 342.014 95.386 329.157 100.758 C 309.481 93.718 287.468 87.42 262.922 83.9 C 246.947 81.491 230.389 80.38 215.194 80.38 L 214.609 80.38 C 206.622 80.38 198.635 80.935 191.232 81.491 C 167.855 82.047 150.712 89.643 138.439 98.35 C 132.984 101.87 128.114 105.946 123.634 110.577 L 115.062 118.729 C 105.322 127.992 95.971 138.552 86.815 149.112 C 66.555 173.01 49.996 195.242 36.554 217.288 C 30.515 227.292 22.528 240.631 16.879 256.934 C 13.762 265.641 12.008 273.792 10.839 281.944 C 7.138 304.175 13.372 321.59 15.71 328.63 L 15.71 329.185 C 27.398 363.088 45.71 392.174 60.516 412.553 C 58.762 419.593 57.399 427.189 56.23 434.784 C 50.775 470.355 49.412 506.48 53.113 542.051 C 56.814 575.953 64.217 609.671 75.126 640.054 C 77.659 645.797 79.412 651.725 81.945 656.913 C 81.36 658.58 80.776 660.433 80.191 662.1 C 72.204 682.479 61.879 709.341 57.594 739.724 C 55.061 754.36 54.477 769.551 54.477 783.446 C 54.477 790.486 55.061 796.785 55.645 803.269 C 56.23 823.092 63.048 838.283 71.035 849.955 C 75.321 856.439 80.776 862.182 87.01 867.369 L 95.581 875.521 C 105.906 884.784 117.01 894.232 128.114 902.939 C 153.244 922.762 177.206 938.51 200.388 951.293 C 210.713 957.036 225.518 964.631 242.662 970.004 C 252.402 972.968 260.974 974.636 270.324 975.747 C 274.026 976.303 278.312 976.303 282.013 976.303 C 299.74 976.303 313.377 971.671 319.416 972.227 L 320.001 972.227 C 349.417 962.964 377.664 948.884 409.418 927.394 C 413.703 927.95 418.574 929.061 422.859 929.802 C 459.678 936.286 497.666 939.065 535.069 936.842 C 571.304 935.175 607.343 928.691 641.824 918.687 C 653.513 915.167 665.786 911.091 677.474 906.459 C 699.487 914.611 724.033 922.762 751.696 926.838 C 768.839 929.802 785.398 930.914 801.957 930.914 L 802.541 930.914 C 810.528 930.914 818.515 930.358 825.918 929.802 C 849.295 928.691 866.438 921.651 878.711 912.944 C 884.166 908.868 889.231 904.792 893.517 900.161 L 900.919 893.121 C 920.595 873.298 939.492 851.807 956.05 829.576 C 971.44 809.197 988.583 784.743 999.493 754.916 C 1002.609 746.208 1004.947 738.613 1006.311 730.461 C 1009.817 706.748 1004.168 689.333 1001.83 682.293 Z M 859.815 615.785 C 833.711 590.219 789.294 558.724 705.916 524.08 L 728.514 483.323 L 554.94 527.6 L 617.668 680.255 L 642.798 634.866 C 664.227 644.13 680.201 653.578 696.176 664.694 C 720.722 680.997 743.319 699.152 762.411 718.419 C 808.775 763.067 833.126 808.827 826.892 846.62 L 826.113 846.991 L 822.996 847.546 C 801.567 849.955 778.19 848.658 754.423 843.471 L 753.839 843.471 C 728.124 836.986 702.604 827.909 676.89 816.608 C 626.434 841.062 569.161 855.142 508.575 855.142 C 466.886 855.142 426.95 848.473 389.547 836.431 C 415.846 811.235 447.795 769.181 482.86 693.038 L 525.718 714.529 L 479.159 549.461 L 317.858 608.004 L 366.365 633.014 C 356.625 653.393 346.689 668.584 335.001 683.775 C 317.858 707.118 298.766 728.609 278.506 746.764 C 231.558 790.856 183.44 814.014 143.699 808.086 L 142.92 807.345 L 142.335 804.38 C 139.803 784.002 141.166 761.77 146.621 739.169 L 146.621 738.613 C 153.829 712.676 164.154 686.925 177.011 660.988 C 151.686 613.376 137.465 559.465 137.465 502.405 C 137.465 465.538 143.504 429.968 154.608 396.621 C 180.518 422.372 225.129 454.422 309.871 489.622 L 287.273 530.379 L 460.847 486.102 L 398.898 331.594 L 372.988 378.28 C 351.56 369.017 335.585 359.568 319.611 348.453 C 295.065 332.15 272.467 313.994 253.376 294.727 C 207.401 250.264 182.855 204.875 188.894 167.267 L 190.258 165.97 L 193.375 165.415 C 214.804 163.006 238.181 164.303 261.948 169.49 L 262.532 169.49 C 285.325 175.233 308.117 183.014 330.91 192.648 C 383.898 165.229 444.288 149.667 508.575 149.667 C 550.849 149.667 591.369 156.522 629.162 168.749 C 601.888 193.204 567.992 235.629 530.589 316.958 L 487.731 295.468 L 534.29 460.536 L 696.176 402.178 L 647.084 377.168 C 656.824 356.789 666.76 341.598 678.448 326.407 C 695.591 303.064 714.683 281.573 734.943 263.418 C 781.891 219.326 830.009 196.168 869.75 202.096 L 870.529 202.837 L 871.114 205.801 C 873.646 226.18 872.283 248.412 866.828 271.013 L 866.828 271.569 C 860.204 295.283 850.854 319.181 839.555 342.895 C 865.27 390.877 879.685 444.974 879.685 502.59 C 879.491 542.051 872.477 580.214 859.815 615.785 Z" style=""/>
</svg>