<?xml version="1.0" encoding="iso-8859-1"?>
<!-- Uploaded to: SVG Repo, www.svgrepo.com, Generator: SVG Repo Mixer Tools -->
<svg fill="#000000" height="800px" width="800px" version="1.1" id="Layer_1" xmlns="http://www.w3.org/2000/svg" xmlns:xlink="http://www.w3.org/1999/xlink" 
	 viewBox="0 0 512 512" xml:space="preserve">
<g>
	<g>
		<path d="M490.667,0H21.333C9.552,0,0,9.551,0,21.333v469.333C0,502.449,9.552,512,21.333,512h469.333
			c11.782,0,21.333-9.551,21.333-21.333V21.333C512,9.551,502.45,0,490.667,0z M469.334,469.333L469.334,469.333H42.667V42.667
			h426.667V469.333z"/>
	</g>
</g>
<g>
	<g>
		<path d="M304.683,256.761l-81.871-46.802c-53.773-30.714-31.272-102.234,33.531-103.274c0.063-0.002,0.123-0.013,0.186-0.016
			c0.11,0.001,0.201,0.002,0.286,0.003C290.208,107.155,320,137.216,320,170.667c0,11.782,9.551,21.333,21.333,21.333
			c11.782,0,21.333-9.551,21.333-21.333c0-57.225-49.276-106.562-106.484-106.666c-0.776,0.004-1.181,0.019-1.584,0.045
			c-105.818,2.539-145.574,130.057-52.956,182.959l81.871,46.802c55.095,31.468,35.429,110.252-27.573,111.519
			c-33.915-0.254-63.94-30.413-63.94-63.993C192,329.551,182.45,320,170.667,320c-11.782,0-21.333,9.551-21.333,21.333
			c0,57.225,49.276,106.562,106.484,106.667C363.177,446.1,397.331,309.679,304.683,256.761z"/>
	</g>
</g>
</svg>