<svg xmlns="http://www.w3.org/2000/svg"  viewBox="0 0 48 48" width="144px" height="144px"><path d="M 29.177734 1.546875 C 26.605643 1.4323009 25.304286 2.8304111 24.566406 3.8398438 C 23.514162 3.5171247 21.858995 3.1857525 19.908203 4.2207031 C 18.179071 5.137331 17.390668 6.4124378 16.923828 7.3964844 C 16.784081 7.3636924 16.763584 7.4039142 16.617188 7.3320312 C 16.115538 7.0857047 15.605296 6.8023919 15.611328 5.0507812 A 1.50015 1.50015 0 0 0 13.244141 3.8222656 C 10.378579 5.8518224 9.2861335 8.7709746 9.7675781 11.289062 C 10.132704 13.198769 11.33312 14.851697 13.017578 15.810547 C 12.564377 16.722798 11.977834 17.9826 11.416016 19.439453 C 10.274644 22.399146 9.1695478 26.159144 9.6230469 29.675781 C 10.045436 32.951181 11.193108 35.820255 13.251953 37.982422 C 13.692145 38.444705 14.179451 38.863873 14.697266 39.253906 C 14.81543 40.026428 15.119635 41.424679 15.978516 42.869141 C 17.235276 44.982756 19.876709 47.131505 24.140625 47.044922 C 28.792197 46.950677 32.58473 42.73707 32.603516 37.390625 C 33.250158 36.621877 33.881539 35.719661 34.423828 34.65625 C 35.290396 34.74488 36.176315 34.7265 37.046875 34.439453 C 38.324623 34.018141 39.583156 33.014539 40.046875 31.478516 C 40.643216 29.50361 39.991475 28.11393 39.306641 27.136719 C 40.871138 25.229765 43.733095 20.786539 41.798828 15.527344 C 40.813091 12.848841 39.297804 11.571946 38.384766 10.910156 C 38.455986 10.552375 38.518246 10.489933 38.535156 9.9648438 C 38.571281 8.843148 38.385145 7.2573508 37.09375 6.1367188 C 35.662634 4.8956197 34.255645 4.6538423 33.21875 4.5976562 C 33.131221 4.2845199 33.209855 4.2498058 33.019531 3.890625 C 32.454954 2.8251491 31.116848 1.6321476 29.177734 1.546875 z M 29.044922 4.5449219 C 29.993808 4.5866489 30.155718 4.8941009 30.369141 5.296875 C 30.582564 5.6996491 30.611328 6.1035156 30.611328 6.1035156 A 1.50015 1.50015 0 0 0 32.255859 7.5390625 C 32.255859 7.5390625 34.033764 7.4557574 35.126953 8.4023438 C 35.408558 8.6467117 35.558736 9.1956352 35.537109 9.8671875 C 35.515479 10.53874 35.349609 11.09375 35.349609 11.09375 A 1.50015 1.50015 0 0 0 36.050781 12.847656 C 36.050781 12.847656 38.020862 13.944385 38.984375 16.5625 C 39.878298 18.993041 39.319912 21.231112 38.492188 22.916016 C 38.280373 20.661336 37.673057 18.35922 35.886719 16.169922 A 1.0001 1.0001 0 0 0 35.884766 16.169922 C 35.219521 15.35529 33.676725 13.623056 31.34375 12.6875 C 30.177262 12.219722 28.801411 11.98716 27.300781 12.181641 C 26.014188 12.348382 24.628578 12.918573 23.212891 13.837891 C 22.475044 13.193958 21.65245 12.740909 20.804688 12.619141 C 19.694976 12.459747 18.618134 12.662121 17.664062 12.972656 C 16.989986 13.192057 16.405842 13.465319 15.878906 13.736328 A 1.50015 1.50015 0 0 0 15.326172 13.542969 C 13.968909 13.161757 12.964486 12.04248 12.712891 10.726562 C 12.554992 9.9007119 12.822817 8.9861457 13.390625 8.0605469 C 13.901676 8.9817019 14.576793 9.6727644 15.294922 10.025391 C 16.647523 10.689564 17.955078 10.539063 17.955078 10.539062 A 1.50015 1.50015 0 0 0 19.240234 9.5 C 19.240234 9.5 19.974499 7.581415 21.314453 6.8710938 C 22.419047 6.2850753 24.546875 6.9355469 24.546875 6.9355469 A 1.50015 1.50015 0 0 0 26.443359 6.234375 C 26.443359 6.234375 27.403936 4.471824 29.044922 4.5449219 z M 28.380859 14.070312 C 29.185634 14.084824 29.921225 14.27288 30.599609 14.544922 C 32.408634 15.270366 33.767229 16.737226 34.335938 17.433594 C 36.451228 20.02605 36.594657 22.667651 36.603516 25.664062 C 36.53057 25.739299 36.345703 25.951172 36.345703 25.951172 A 1.50015 1.50015 0 0 0 36.402344 28.189453 C 36.402344 28.189453 37.608829 29.1772 37.175781 30.611328 C 37.018501 31.132305 36.703174 31.393406 36.107422 31.589844 C 35.511669 31.786281 34.678483 31.783597 34.054688 31.603516 A 1.50015 1.50015 0 0 0 32.244141 32.492188 C 31.650632 33.987162 30.859236 35.097285 30.074219 35.941406 A 1.50015 1.50015 0 0 0 29.890625 36.150391 C 28.443007 37.628934 27.072266 38.144531 27.072266 38.144531 A 1.50021 1.50021 0 1 0 28.148438 40.945312 C 28.148438 40.945312 28.482707 40.789433 28.986328 40.490234 C 28.029838 42.667927 26.105454 44.003888 24.080078 44.044922 C 20.759994 44.112342 19.40388 42.760822 18.556641 41.335938 C 18.536104 41.3014 18.521621 41.266973 18.501953 41.232422 C 19.55332 41.590767 20.683471 41.863557 21.90625 42.03125 A 1.5002761 1.5002761 0 1 0 22.314453 39.058594 C 19.144128 38.623814 16.956733 37.523895 15.423828 35.914062 C 13.890923 34.304231 12.96322 32.112569 12.599609 29.292969 C 12.267108 26.714606 13.159715 23.255589 14.214844 20.519531 C 14.433226 19.953245 14.654202 19.444631 14.869141 18.953125 C 16.01499 18.364175 17.785209 17.85067 19.320312 17.523438 A 1.0001 1.0001 0 0 0 19.070312 15.542969 A 1.0001 1.0001 0 0 0 18.902344 15.566406 C 18.030794 15.752191 17.084528 15.981001 16.160156 16.269531 C 16.22623 16.149138 16.412109 15.791016 16.412109 15.791016 A 1.50015 1.50015 0 0 0 16.423828 15.771484 A 1.500287 1.500287 0 0 0 16.435547 15.744141 A 1.50015 1.50015 0 0 0 16.46875 15.683594 C 16.991495 15.397607 17.614024 15.092807 18.283203 14.875 C 19.048882 14.625784 19.841507 14.501941 20.521484 14.599609 C 21.201461 14.697279 21.777713 14.968237 22.326172 15.664062 A 1.0001 1.0001 0 0 0 23.710938 15.845703 C 25.504593 14.502632 27.039568 14.046127 28.380859 14.070312 z M 27.142578 15.042969 A 1.0001 1.0001 0 0 0 27.042969 15.044922 A 1.0001 1.0001 0 0 0 26.980469 17.037109 C 26.980469 17.037109 27.457076 17.099649 27.990234 17.494141 C 28.523392 17.888636 29.081122 18.527323 29.111328 20.064453 A 1.0001907 1.0001907 0 1 0 31.111328 20.025391 C 31.070538 17.94952 30.128779 16.588973 29.179688 15.886719 C 28.230595 15.184464 27.242188 15.052734 27.242188 15.052734 A 1.0001 1.0001 0 0 0 27.142578 15.042969 z M 21.853516 19.033203 A 1.0001 1.0001 0 0 0 20.980469 19.558594 C 19.878029 21.535971 18.709096 22.785235 17.466797 23.832031 A 1.0001 1.0001 0 0 0 17.226562 25.064453 C 17.873406 26.288871 18.603222 27.285972 19.388672 28.107422 A 1.0001 1.0001 0 1 0 20.833984 26.726562 C 20.326532 26.195851 19.864752 25.468255 19.408203 24.714844 C 20.560168 23.647097 21.698314 22.375554 22.726562 20.53125 A 1.0001 1.0001 0 0 0 21.853516 19.033203 z M 17.025391 19.048828 C 16.472391 19.048828 16.023438 19.944828 16.023438 21.048828 C 16.023438 22.152828 16.472391 23.048828 17.025391 23.048828 C 17.578391 23.048828 18.027344 22.152828 18.027344 21.048828 C 18.027344 19.944828 17.578391 19.048828 17.025391 19.048828 z M 26.013672 21.056641 C 25.712874 21.070055 25.383688 21.098719 25.023438 21.144531 L 25.023438 21.878906 C 25.023438 21.878906 27.184953 21.878125 28.626953 24.078125 C 28.626953 24.078125 30.525647 20.855426 26.013672 21.056641 z M 26.097656 26.039062 A 1.0001 1.0001 0 0 0 25.644531 27.929688 C 25.644531 27.929688 25.828612 28.128098 25.878906 28.160156 C 22.500397 29.741867 18.955472 30.013162 14.943359 28.601562 A 1.0001 1.0001 0 0 0 13.626953 29.71875 C 13.844957 30.951968 14.667597 32.078954 15.806641 32.986328 C 16.945685 33.893702 18.449398 34.56231 20.121094 34.544922 C 24.24925 34.502282 26.657703 31.725653 27.072266 31.228516 C 27.040686 31.649266 27.079866 32.007534 26.894531 32.554688 A 1.0002692 1.0002692 0 1 0 28.789062 33.197266 C 29.581255 30.858789 29.096172 29.002093 28.345703 27.849609 C 27.595234 26.697126 26.576172 26.160156 26.576172 26.160156 A 1.0001 1.0001 0 0 0 26.097656 26.039062 z M 24.691406 30.710938 C 23.730115 31.545143 22.297536 32.522237 20.101562 32.544922 C 18.98526 32.556532 17.89019 32.089001 17.052734 31.421875 C 16.936563 31.329335 16.955614 31.236099 16.851562 31.136719 C 19.589109 31.672689 22.211503 31.499282 24.691406 30.710938 z"/></svg>