<?xml version="1.0" encoding="iso-8859-1"?>
<!-- Uploaded to: SVG Repo, www.svgrepo.com, Generator: SVG Repo Mixer Tools -->
<!DOCTYPE svg PUBLIC "-//W3C//DTD SVG 1.1//EN" "http://www.w3.org/Graphics/SVG/1.1/DTD/svg11.dtd">
<svg fill="#000000" version="1.1" id="Capa_1" xmlns="http://www.w3.org/2000/svg" xmlns:xlink="http://www.w3.org/1999/xlink" 
	 width="800px" height="800px" viewBox="0 0 28 28" xml:space="preserve">
<g>
	<g>
		<path d="M14,0C6.28,0,0,6.28,0,14s6.28,14,14,14c7.721,0,14-6.28,14-14S21.721,0,14,0z M14,27.062
			C6.797,27.062,0.938,21.203,0.938,14S6.797,0.938,14,0.938S27.062,6.797,27.062,14S21.203,27.062,14,27.062z"/>
		<path d="M14,2.706C7.771,2.706,2.706,7.771,2.706,14c0,6.229,5.065,11.294,11.294,11.294c6.229,0,11.294-5.065,11.294-11.294
			C25.294,7.771,20.229,2.706,14,2.706z M14,24.355c-1.901,0-3.679-0.524-5.212-1.424h7.001c0,0-1.209-0.592-1.346-1.097
			c-0.407-1.498,0.332-3.211,1.211-3.047c1.143,0.212,3.371,1.917,3.607-0.172c0.139-1.22,0.524-0.907,0.635-1.169
			c0.164-0.389-1.551-0.736-1.723-0.84c0.139-0.047,2.051-0.473,2.064-0.825c0.171-0.259-0.573-0.673-0.493-0.996
			c0.157-0.64,0.896-0.427,1.198-0.824c0.4-0.534-0.309-0.994-0.659-1.311c-0.526-0.472-1.242-0.947-1.046-1.958
			c0.125-0.71-0.094-1.537,0.119-1.812c0.211-0.277,0.572-1.974-0.506-3.267c-1.416-1.7-1.022,1.182-2.791,0.321
			c-2.276-1.107-6.046-1.2-8.237,1.393c-1.384,1.639-0.931,5.716-0.107,7.945c0.296,0.8,1.077,1.168,1.141,2.244
			c0.352,2.422-0.373,4.168-0.799,4.95C5.393,20.593,3.645,17.499,3.645,14C3.645,8.29,8.29,3.645,14,3.645S24.355,8.29,24.355,14
			S19.71,24.355,14,24.355z"/>
		<path d="M6.491,12.563c-0.112-0.836-0.158-1.698-0.105-2.521c-0.618,1.185-0.973,2.53-0.973,3.957c0,2.502,1.082,4.75,2.794,6.321
			c0.074-0.357,0.12-0.756,0.141-1.186c-1.236-1.359-1.998-3.158-1.998-5.136C6.35,13.508,6.401,13.029,6.491,12.563z"/>
		<path d="M20.154,8.023c-0.033,0.473-0.143,0.856-0.275,1.09c1.004,1.206,1.639,2.725,1.746,4.386
			c0.01,0.073,0.018,0.146,0.01,0.222c0.004,0.093,0.016,0.185,0.016,0.279c0,1.915-0.713,3.664-1.881,5.007
			c-0.236,0.984-0.93,1.183-1.328,1.209c-1,0.716-2.176,1.196-3.457,1.362c0.009,0.036,0.007,0.07,0.017,0.105
			c0.063,0.127,0.505,0.445,0.938,0.674c3.804-0.883,6.648-4.291,6.648-8.358C22.587,11.677,21.657,9.57,20.154,8.023z"/>
	</g>
</g>
</svg>